<svg xmlns="http://www.w3.org/2000/svg" viewBox="0 0 372 372" width="372" height="372">
  <path d="M 178.09 345.07 L 48.38 263.96 L 47.88 108.22 L 48.40 106.00 L 50.29 104.38 L 104.71 73.37 L 186.54 25.63 L 188.78 25.12 L 283.29 80.37 L 318.71 100.38 L 326.63 105.03 L 327.34 106.27 L 326.29 107.57 L 278.92 131.89 L 254.49 143.34 L 238.45 148.85 L 222.70 153.10 L 211.39 155.36 L 196.29 157.13 L 195.38 160.47 L 195.62 178.84 L 194.65 179.62 L 191.29 178.12 L 146.46 151.38 L 138.04 146.87 L 127.00 140.35 L 126.17 139.21 L 127.18 137.96 L 175.00 109.60 L 194.59 96.93 L 195.62 98.10 L 195.63 119.34 L 196.66 120.62 L 212.39 118.61 L 225.45 115.60 L 241.74 109.84 L 253.54 104.33 L 253.48 103.11 L 250.21 101.13 L 188.92 66.36 L 187.74 66.14 L 186.04 66.88 L 164.96 79.37 L 151.04 86.88 L 84.15 126.50 L 83.62 127.72 L 83.62 243.28 L 84.96 245.57 L 142.66 281.50 L 143.41 281.82 L 144.34 280.99 L 144.10 216.80 L 139.71 213.63 L 119.29 202.62 L 115.86 199.92 L 115.38 193.28 L 115.38 163.22 L 115.64 160.36 L 116.16 159.75 L 118.21 160.38 L 135.96 170.13 L 176.96 194.13 L 178.91 195.87 L 179.12 343.78 L 178.09 345.07 Z M 198.53 344.88 L 197.15 344.06 L 196.88 336.03 L 197.13 195.54 L 200.04 193.38 L 213.04 186.38 L 286.01 148.41 L 291.11 146.89 L 297.09 146.63 L 303.41 147.68 L 310.71 150.63 L 316.36 154.73 L 322.35 162.00 L 324.59 166.26 L 326.57 172.09 L 327.87 178.60 L 328.38 198.22 L 328.12 238.15 L 326.07 247.91 L 320.87 259.96 L 313.89 269.23 L 306.04 276.07 L 297.17 281.39 L 288.41 284.82 L 277.84 286.62 L 236.47 287.38 L 232.46 287.99 L 231.75 323.84 L 228.38 326.47 L 198.53 344.88 Z M 254.04 251.45 L 270.34 251.12 L 278.16 250.07 L 281.67 248.89 L 286.54 246.07 L 290.87 240.96 L 293.11 234.64 L 293.38 227.28 L 293.12 186.47 L 292.33 185.21 L 238.79 213.63 L 232.25 217.66 L 231.88 250.03 L 232.28 250.88 L 233.72 251.62 L 254.04 251.45 Z" fill="#05F47B" fill-rule="evenodd"/>
</svg>
